<svg width="28" height="28" viewBox="0 0 28 28" fill="none" xmlns="http://www.w3.org/2000/svg">
<path d="M8.55117 24.489C7.00313 23.9158 5.62553 22.9561 4.5479 21.7003C3.47026 20.4445 2.72799 18.9338 2.39087 17.3102L0.0667583 6.31683C-0.269258 4.79661 0.696789 3.30455 2.20886 2.9808L15.8875 0.0670559L15.9295 0.0529798C17.4276 -0.242618 18.8977 0.728631 19.2057 2.22069L19.6957 4.5714L25.786 5.88047H25.828C27.2981 6.2183 28.2501 7.71036 27.9421 9.20242L25.618 20.2099C25.3497 21.4744 24.8363 22.6733 24.1071 23.7383C23.3779 24.8032 22.4472 25.7133 21.3681 26.4166C20.2889 27.1198 19.0826 27.6024 17.8179 27.8368C16.5533 28.0713 15.255 28.0529 13.9974 27.7828C11.864 27.3352 9.94423 26.1742 8.55117 24.489ZM25.198 8.6253L11.5193 5.69748L9.1952 16.705V16.7472C8.39716 20.5196 10.8193 24.2357 14.5855 25.038C18.3516 25.8403 22.0758 23.4192 22.8739 19.6328L25.198 8.6253ZM19.5977 20.3366C19.1554 21.0894 18.4889 21.6834 17.6924 22.0345C16.896 22.3856 16.0099 22.4761 15.1595 22.2932C14.3117 22.1108 13.5418 21.6669 12.957 21.0234C12.3722 20.38 12.0017 19.569 11.8973 18.7038L19.5977 20.3366ZM9.05519 4.38841L2.79689 5.73971L5.121 16.7331L5.135 16.7753C5.34501 17.7747 5.76503 18.6756 6.33906 19.4498C6.19905 18.3659 6.22705 17.2399 6.46507 16.1138L7.0671 13.2986C6.43706 13.1859 5.89104 12.834 5.59702 12.3273C5.68103 11.4687 6.38106 10.7086 7.34711 10.4833H7.69712L8.78918 5.12036C8.84518 4.85292 8.92918 4.61363 9.05519 4.38841ZM18.2396 14.3261C18.6877 13.5801 19.6397 13.1859 20.6057 13.3971C21.5718 13.5942 22.2718 14.3402 22.3978 15.2129C21.9358 15.9449 20.9978 16.339 20.0177 16.1138C19.0517 15.9308 18.3516 15.1847 18.2396 14.3261ZM11.4073 12.8622C11.8553 12.1162 12.7934 11.722 13.7594 11.9332C14.6975 12.1302 15.4395 12.8904 15.5515 13.749C15.0895 14.4809 14.1514 14.8892 13.1854 14.7062C12.2193 14.4669 11.5193 13.7208 11.4073 12.8622ZM13.9554 3.34678L16.6996 3.93797L16.4755 2.81189L13.9554 3.34678Z" fill="white"/>
</svg>
