<svg width="19" height="25" viewBox="0 0 19 25" fill="none" xmlns="http://www.w3.org/2000/svg">
<path d="M7 22.58C6.72386 22.58 6.5 22.8039 6.5 23.08C6.5 23.3561 6.72386 23.58 7 23.58H12C12.2761 23.58 12.5 23.3561 12.5 23.08C12.5 22.8039 12.2761 22.58 12 22.58H7ZM4.5 19.24C4.5 19.5161 4.72386 19.74 5 19.74H14C14.2761 19.74 14.5 19.5161 14.5 19.24V17.32C14.5 15.6011 15.3768 14.5289 16.3841 13.3201L16.4118 13.2869C17.3976 12.1041 18.5 10.7814 18.5 8.68C18.5 4.56468 15.277 0.5 9.5 0.5C3.72304 0.5 0.5 4.56468 0.5 8.68C0.5 10.7814 1.60244 12.1041 2.5882 13.2869L2.61589 13.3201C3.6232 14.5289 4.5 15.6011 4.5 17.32V19.24Z" fill="white" stroke="white" stroke-linecap="round" stroke-linejoin="round"/>
</svg>
