<svg width="28" height="28" viewBox="0 0 28 28" fill="none" xmlns="http://www.w3.org/2000/svg">
<path d="M11.62 7.31111C11.4903 7.45348 11.3873 7.62304 11.3171 7.80995C11.2468 7.99687 11.2106 8.19743 11.2106 8.4C11.2106 8.60257 11.2468 8.80313 11.3171 8.99005C11.3873 9.17696 11.4903 9.34652 11.62 9.48889L14.28 12.4444H1.4C0.63 12.4444 0 13.1444 0 14C0 14.8556 0.63 15.5556 1.4 15.5556H14.28L11.62 18.5111C11.4903 18.6535 11.3873 18.823 11.3171 19.01C11.2468 19.1969 11.2106 19.3974 11.2106 19.6C11.2106 19.8026 11.2468 20.0031 11.3171 20.19C11.3873 20.377 11.4903 20.5465 11.62 20.6889C12.166 21.2956 13.034 21.2956 13.58 20.6889L18.606 15.1044C18.7358 14.9605 18.8388 14.7896 18.909 14.6014C18.9793 14.4132 19.0154 14.2115 19.0154 14.0078C19.0154 13.804 18.9793 13.6023 18.909 13.4141C18.8388 13.226 18.7358 13.055 18.606 12.9111L13.58 7.31111C13.4519 7.167 13.2993 7.05259 13.131 6.9745C12.9628 6.89642 12.7823 6.8562 12.6 6.8562C12.4177 6.8562 12.2372 6.89642 12.069 6.9745C11.9007 7.05259 11.7481 7.167 11.62 7.31111ZM25.2 24.8889H15.4C14.63 24.8889 14 25.5889 14 26.4444C14 27.3 14.63 28 15.4 28H25.2C26.74 28 28 26.6 28 24.8889V3.11111C28 1.4 26.74 0 25.2 0H15.4C14.63 0 14 0.7 14 1.55556C14 2.41111 14.63 3.11111 15.4 3.11111H25.2V24.8889Z" fill="white"/>
</svg>
