<svg width="81" height="73" viewBox="0 0 81 73" fill="none" xmlns="http://www.w3.org/2000/svg">
<g clip-path="url(#clip0_242_1150)">
<path d="M1.98272 70V60.2H6.21072C7.30272 60.2 8.14739 60.4193 8.74472 60.858C9.35139 61.2967 9.65472 61.9173 9.65472 62.72C9.65472 63.252 9.52872 63.7 9.27672 64.064C9.03405 64.428 8.69805 64.7033 8.26872 64.89C7.84872 65.0767 7.38672 65.17 6.88272 65.17L7.12072 64.834C7.74605 64.834 8.28272 64.932 8.73072 65.128C9.18805 65.3147 9.54272 65.5993 9.79472 65.982C10.0467 66.3553 10.1727 66.822 10.1727 67.382C10.1727 68.2127 9.86472 68.8567 9.24872 69.314C8.64205 69.7713 7.72272 70 6.49072 70H1.98272ZM3.01872 69.146H6.47672C7.33539 69.146 7.99339 69.0013 8.45072 68.712C8.90805 68.4133 9.13672 67.942 9.13672 67.298C9.13672 66.6633 8.90805 66.2013 8.45072 65.912C7.99339 65.6133 7.33539 65.464 6.47672 65.464H2.90672V64.61H6.14072C6.92472 64.61 7.53139 64.4607 7.96072 64.162C8.39939 63.8633 8.61872 63.42 8.61872 62.832C8.61872 62.2347 8.39939 61.7913 7.96072 61.502C7.53139 61.2033 6.92472 61.054 6.14072 61.054H3.01872V69.146ZM16.9334 70V68.376L16.8914 68.11V65.394C16.8914 64.7687 16.7141 64.288 16.3594 63.952C16.0141 63.616 15.4961 63.448 14.8054 63.448C14.3294 63.448 13.8767 63.5273 13.4474 63.686C13.0181 63.8447 12.6541 64.0547 12.3554 64.316L11.9074 63.574C12.2807 63.2567 12.7287 63.014 13.2514 62.846C13.7741 62.6687 14.3247 62.58 14.9034 62.58C15.8554 62.58 16.5881 62.818 17.1014 63.294C17.6241 63.7607 17.8854 64.4747 17.8854 65.436V70H16.9334ZM14.3994 70.07C13.8487 70.07 13.3681 69.9813 12.9574 69.804C12.5561 69.6173 12.2481 69.3653 12.0334 69.048C11.8187 68.7213 11.7114 68.348 11.7114 67.928C11.7114 67.5453 11.8001 67.2 11.9774 66.892C12.1641 66.5747 12.4627 66.3227 12.8734 66.136C13.2934 65.94 13.8534 65.842 14.5534 65.842H17.0874V66.584H14.5814C13.8721 66.584 13.3774 66.71 13.0974 66.962C12.8267 67.214 12.6914 67.5267 12.6914 67.9C12.6914 68.32 12.8547 68.656 13.1814 68.908C13.5081 69.16 13.9654 69.286 14.5534 69.286C15.1134 69.286 15.5941 69.16 15.9954 68.908C16.4061 68.6467 16.7047 68.2733 16.8914 67.788L17.1154 68.474C16.9287 68.9593 16.6021 69.3467 16.1354 69.636C15.6781 69.9253 15.0994 70.07 14.3994 70.07ZM23.6372 70.07C22.9092 70.07 22.2559 69.9113 21.6772 69.594C21.1079 69.2673 20.6599 68.824 20.3332 68.264C20.0066 67.6947 19.8432 67.046 19.8432 66.318C19.8432 65.5807 20.0066 64.932 20.3332 64.372C20.6599 63.812 21.1079 63.3733 21.6772 63.056C22.2559 62.7387 22.9092 62.58 23.6372 62.58C24.2626 62.58 24.8272 62.7013 25.3312 62.944C25.8352 63.1867 26.2319 63.5507 26.5212 64.036L25.7792 64.54C25.5272 64.1667 25.2146 63.8913 24.8412 63.714C24.4679 63.5367 24.0619 63.448 23.6232 63.448C23.1006 63.448 22.6292 63.5693 22.2092 63.812C21.7892 64.0453 21.4579 64.3767 21.2152 64.806C20.9726 65.2353 20.8512 65.7393 20.8512 66.318C20.8512 66.8967 20.9726 67.4007 21.2152 67.83C21.4579 68.2593 21.7892 68.5953 22.2092 68.838C22.6292 69.0713 23.1006 69.188 23.6232 69.188C24.0619 69.188 24.4679 69.0993 24.8412 68.922C25.2146 68.7447 25.5272 68.474 25.7792 68.11L26.5212 68.614C26.2319 69.09 25.8352 69.454 25.3312 69.706C24.8272 69.9487 24.2626 70.07 23.6372 70.07ZM29.1485 68.096L29.1765 66.822L33.7545 62.65H34.9725L31.7385 65.744L31.1785 66.22L29.1485 68.096ZM28.3645 70V59.612H29.3585V70H28.3645ZM34.0625 70L30.9965 66.178L31.6405 65.408L35.2805 70H34.0625ZM42.7608 70.07C42.0701 70.07 41.5381 69.8833 41.1648 69.51C40.7914 69.1367 40.6048 68.6093 40.6048 67.928V61.026H41.5988V67.872C41.5988 68.3013 41.7061 68.6327 41.9208 68.866C42.1448 69.0993 42.4621 69.216 42.8728 69.216C43.3114 69.216 43.6754 69.09 43.9648 68.838L44.3148 69.552C44.1188 69.7293 43.8808 69.86 43.6008 69.944C43.3301 70.028 43.0501 70.07 42.7608 70.07ZM39.2888 63.476V62.65H43.8388V63.476H39.2888ZM48.8605 70.07C48.1512 70.07 47.5118 69.9113 46.9425 69.594C46.3825 69.2673 45.9392 68.824 45.6125 68.264C45.2858 67.6947 45.1225 67.046 45.1225 66.318C45.1225 65.5807 45.2858 64.932 45.6125 64.372C45.9392 63.812 46.3825 63.3733 46.9425 63.056C47.5025 62.7387 48.1418 62.58 48.8605 62.58C49.5885 62.58 50.2325 62.7387 50.7925 63.056C51.3618 63.3733 51.8052 63.812 52.1225 64.372C52.4492 64.932 52.6125 65.5807 52.6125 66.318C52.6125 67.046 52.4492 67.6947 52.1225 68.264C51.8052 68.824 51.3618 69.2673 50.7925 69.594C50.2232 69.9113 49.5792 70.07 48.8605 70.07ZM48.8605 69.188C49.3925 69.188 49.8638 69.0713 50.2745 68.838C50.6852 68.5953 51.0072 68.2593 51.2405 67.83C51.4832 67.3913 51.6045 66.8873 51.6045 66.318C51.6045 65.7393 51.4832 65.2353 51.2405 64.806C51.0072 64.3767 50.6852 64.0453 50.2745 63.812C49.8638 63.5693 49.3972 63.448 48.8745 63.448C48.3518 63.448 47.8852 63.5693 47.4745 63.812C47.0638 64.0453 46.7372 64.3767 46.4945 64.806C46.2518 65.2353 46.1305 65.7393 46.1305 66.318C46.1305 66.8873 46.2518 67.3913 46.4945 67.83C46.7372 68.2593 47.0638 68.5953 47.4745 68.838C47.8852 69.0713 48.3472 69.188 48.8605 69.188ZM60.6299 70.07C59.9393 70.07 59.4073 69.8833 59.0339 69.51C58.6606 69.1367 58.4739 68.6093 58.4739 67.928V61.026H59.4679V67.872C59.4679 68.3013 59.5753 68.6327 59.7899 68.866C60.0139 69.0993 60.3313 69.216 60.7419 69.216C61.1806 69.216 61.5446 69.09 61.8339 68.838L62.1839 69.552C61.9879 69.7293 61.7499 69.86 61.4699 69.944C61.1993 70.028 60.9193 70.07 60.6299 70.07ZM57.1579 63.476V62.65H61.7079V63.476H57.1579ZM66.7297 70.07C66.0203 70.07 65.381 69.9113 64.8117 69.594C64.2517 69.2673 63.8083 68.824 63.4817 68.264C63.155 67.6947 62.9917 67.046 62.9917 66.318C62.9917 65.5807 63.155 64.932 63.4817 64.372C63.8083 63.812 64.2517 63.3733 64.8117 63.056C65.3717 62.7387 66.011 62.58 66.7297 62.58C67.4577 62.58 68.1017 62.7387 68.6617 63.056C69.231 63.3733 69.6743 63.812 69.9917 64.372C70.3183 64.932 70.4817 65.5807 70.4817 66.318C70.4817 67.046 70.3183 67.6947 69.9917 68.264C69.6743 68.824 69.231 69.2673 68.6617 69.594C68.0923 69.9113 67.4483 70.07 66.7297 70.07ZM66.7297 69.188C67.2617 69.188 67.733 69.0713 68.1437 68.838C68.5543 68.5953 68.8763 68.2593 69.1097 67.83C69.3523 67.3913 69.4737 66.8873 69.4737 66.318C69.4737 65.7393 69.3523 65.2353 69.1097 64.806C68.8763 64.3767 68.5543 64.0453 68.1437 63.812C67.733 63.5693 67.2663 63.448 66.7437 63.448C66.221 63.448 65.7543 63.5693 65.3437 63.812C64.933 64.0453 64.6063 64.3767 64.3637 64.806C64.121 65.2353 63.9997 65.7393 63.9997 66.318C63.9997 66.8873 64.121 67.3913 64.3637 67.83C64.6063 68.2593 64.933 68.5953 65.3437 68.838C65.7543 69.0713 66.2163 69.188 66.7297 69.188ZM76.305 70.07C75.6703 70.07 75.0963 69.9253 74.583 69.636C74.0697 69.3373 73.659 68.9127 73.351 68.362C73.0523 67.802 72.903 67.1207 72.903 66.318C72.903 65.5153 73.0523 64.8387 73.351 64.288C73.6497 63.728 74.0557 63.3033 74.569 63.014C75.0823 62.7247 75.661 62.58 76.305 62.58C77.005 62.58 77.6303 62.7387 78.181 63.056C78.741 63.364 79.1797 63.8027 79.497 64.372C79.8143 64.932 79.973 65.5807 79.973 66.318C79.973 67.0647 79.8143 67.718 79.497 68.278C79.1797 68.838 78.741 69.2767 78.181 69.594C77.6303 69.9113 77.005 70.07 76.305 70.07ZM72.511 72.716V62.65H73.463V64.862L73.365 66.332L73.505 67.816V72.716H72.511ZM76.235 69.188C76.7577 69.188 77.2243 69.0713 77.635 68.838C78.0457 68.5953 78.3723 68.2593 78.615 67.83C78.8577 67.3913 78.979 66.8873 78.979 66.318C78.979 65.7487 78.8577 65.2493 78.615 64.82C78.3723 64.3907 78.0457 64.0547 77.635 63.812C77.2243 63.5693 76.7577 63.448 76.235 63.448C75.7123 63.448 75.241 63.5693 74.821 63.812C74.4103 64.0547 74.0837 64.3907 73.841 64.82C73.6077 65.2493 73.491 65.7487 73.491 66.318C73.491 66.8873 73.6077 67.3913 73.841 67.83C74.0837 68.2593 74.4103 68.5953 74.821 68.838C75.241 69.0713 75.7123 69.188 76.235 69.188Z" fill="#F4F4F5"/>
<circle cx="40" cy="24" r="24" fill="#F4F4F5"/>
<path d="M38.5 40C38.5 40.8284 39.1716 41.5 40 41.5C40.8284 41.5 41.5 40.8284 41.5 40H38.5ZM41.0607 6.93934C40.4749 6.35355 39.5251 6.35355 38.9393 6.93934L29.3934 16.4853C28.8076 17.0711 28.8076 18.0208 29.3934 18.6066C29.9792 19.1924 30.9289 19.1924 31.5147 18.6066L40 10.1213L48.4853 18.6066C49.0711 19.1924 50.0208 19.1924 50.6066 18.6066C51.1924 18.0208 51.1924 17.0711 50.6066 16.4853L41.0607 6.93934ZM41.5 40L41.5 8H38.5L38.5 40H41.5Z" fill="#09090B"/>
</g>
<defs>
<clipPath id="clip0_242_1150">
<rect width="81" height="73" fill="white"/>
</clipPath>
</defs>
</svg>
