<svg width="180" height="60" viewBox="0 0 180 60" fill="none" xmlns="http://www.w3.org/2000/svg">
<g clip-path="url(#clip0_242_1154)">
<rect x="0.5" y="0.5" width="179" height="59" stroke="#AAAAAA"/>
<path d="M13.5547 47.3906C12.1484 47.3906 10.9896 47.1497 10.0781 46.668C9.17969 46.1862 8.47656 45.4961 7.96875 44.5977C7.46094 43.6992 7.10938 42.625 6.91406 41.375C6.71875 40.125 6.62109 38.7253 6.62109 37.1758V33.9531H10.9766V37.4297C10.9766 39.6042 11.1393 41.1602 11.4648 42.0977C11.8034 43.0352 12.5 43.5039 13.5547 43.5039C14.2708 43.5039 14.8047 43.3346 15.1562 42.9961C15.5078 42.6576 15.7357 42.1172 15.8398 41.375C15.944 40.6328 15.9961 39.6497 15.9961 38.4258C15.9961 36.9935 15.7227 35.737 15.1758 34.6562C14.6419 33.5625 13.8542 32.4753 12.8125 31.3945L10.4297 29.0117C9.76562 28.3086 9.1276 27.5599 8.51562 26.7656C7.91667 25.9583 7.42839 25.0534 7.05078 24.0508C6.67318 23.0482 6.48438 21.9089 6.48438 20.6328C6.48438 18.875 6.6862 17.3646 7.08984 16.1016C7.49349 14.8385 8.1901 13.875 9.17969 13.2109C10.1823 12.5339 11.582 12.1953 13.3789 12.1953C14.7721 12.1953 15.8984 12.4297 16.7578 12.8984C17.6172 13.3542 18.2747 14.0117 18.7305 14.8711C19.1862 15.7305 19.4987 16.7591 19.668 17.957C19.8372 19.1549 19.9219 20.4961 19.9219 21.9805V24.0508H15.6641V21.6875C15.6641 20.4375 15.6055 19.4023 15.4883 18.582C15.3841 17.7487 15.1693 17.1237 14.8438 16.707C14.5182 16.2904 14.0299 16.082 13.3789 16.082C12.7669 16.082 12.2721 16.2253 11.8945 16.5117C11.5169 16.7982 11.2435 17.2409 11.0742 17.8398C10.9049 18.4258 10.8203 19.1875 10.8203 20.125C10.8203 20.9583 10.918 21.6549 11.1133 22.2148C11.3216 22.7747 11.6341 23.3086 12.0508 23.8164C12.4805 24.3112 13.0013 24.8841 13.6133 25.5352L16.1523 28.25C17.4414 29.6172 18.4701 31.0951 19.2383 32.6836C20.0195 34.2721 20.4102 36.082 20.4102 38.1133C20.4102 40.0794 20.2083 41.7526 19.8047 43.1328C19.401 44.513 18.7044 45.5677 17.7148 46.2969C16.7253 47.026 15.3385 47.3906 13.5547 47.3906ZM34.9805 52.4492L30.1367 47.1562L33.1055 45.6523L37.2266 50.4375L34.9805 52.4492ZM31.0547 47.3906C29.3099 47.3906 27.9102 47.013 26.8555 46.2578C25.8008 45.5026 25.0391 44.3763 24.5703 42.8789C24.1016 41.3685 23.8672 39.487 23.8672 37.2344V21.8438C23.8672 19.8646 24.0885 18.1589 24.5312 16.7266C24.987 15.2812 25.7422 14.168 26.7969 13.3867C27.8516 12.5924 29.2969 12.1953 31.1328 12.1953C32.513 12.1953 33.6523 12.4232 34.5508 12.8789C35.4622 13.3216 36.1784 13.9661 36.6992 14.8125C37.2201 15.6458 37.5846 16.6549 37.793 17.8398C38.0143 19.0247 38.125 20.3594 38.125 21.8438V37.2344C38.125 39.487 37.8971 41.3685 37.4414 42.8789C36.9987 44.3763 36.2565 45.5026 35.2148 46.2578C34.1862 47.013 32.7995 47.3906 31.0547 47.3906ZM31.0547 43.4648C31.7578 43.4648 32.2917 43.263 32.6562 42.8594C33.0208 42.4557 33.2682 41.7982 33.3984 40.8867C33.5286 39.9753 33.5938 38.7708 33.5938 37.2734V21.6094C33.5938 19.7865 33.4375 18.4193 33.125 17.5078C32.8125 16.5833 32.1484 16.1211 31.1328 16.1211C30.0781 16.1211 29.362 16.5703 28.9844 17.4688C28.6068 18.3672 28.418 19.7409 28.418 21.5898V37.2734C28.418 38.7839 28.4831 39.9948 28.6133 40.9062C28.7435 41.8047 28.9974 42.4557 29.375 42.8594C29.7656 43.263 30.3255 43.4648 31.0547 43.4648ZM50.0586 47.4102C48.3268 47.4102 46.9336 47.0781 45.8789 46.4141C44.8372 45.737 44.082 44.7148 43.6133 43.3477C43.1445 41.9805 42.9102 40.2552 42.9102 38.1719V12.625H47.4609V38.0742C47.4609 39.194 47.5 40.1641 47.5781 40.9844C47.6693 41.8047 47.8971 42.4362 48.2617 42.8789C48.6263 43.3216 49.2253 43.543 50.0586 43.543C50.8919 43.543 51.4844 43.3281 51.8359 42.8984C52.2005 42.4557 52.4219 41.8242 52.5 41.0039C52.5781 40.1836 52.6172 39.2135 52.6172 38.0938V12.625H57.1484V38.1719C57.1484 40.2552 56.9206 41.9805 56.4648 43.3477C56.0091 44.7148 55.2604 45.737 54.2188 46.4141C53.1901 47.0781 51.8034 47.4102 50.0586 47.4102ZM60.4102 47L65.4883 12.625H71.2109L76.6992 47H72.4414L71.5234 40.6133H65.5859L64.7461 47H60.4102ZM66.0547 36.9609H70.9961L68.457 19.168H68.3984L66.0547 36.9609ZM80.2148 47V12.625H88.0273C89.8372 12.625 91.1784 12.9635 92.0508 13.6406C92.9362 14.3047 93.5156 15.3008 93.7891 16.6289C94.0625 17.944 94.1992 19.5781 94.1992 21.5312C94.1992 23.6146 93.9844 25.2617 93.5547 26.4727C93.138 27.6706 92.3047 28.4583 91.0547 28.8359C91.6667 28.9401 92.1745 29.2005 92.5781 29.6172C92.9948 30.0208 93.3203 30.6458 93.5547 31.4922C93.8021 32.3255 93.9779 33.4323 94.082 34.8125C94.1862 36.1797 94.2383 37.8854 94.2383 39.9297C94.2383 40.112 94.2383 40.4505 94.2383 40.9453C94.2383 41.4401 94.2383 42 94.2383 42.625C94.2513 43.25 94.2643 43.875 94.2773 44.5C94.3034 45.112 94.3294 45.6458 94.3555 46.1016C94.3945 46.5573 94.4401 46.8568 94.4922 47H89.9609C89.9219 46.9089 89.8828 46.6224 89.8438 46.1406C89.8177 45.6458 89.7917 45.0078 89.7656 44.2266C89.7396 43.4453 89.7201 42.5664 89.707 41.5898C89.707 40.6003 89.707 39.5586 89.707 38.4648C89.707 37.3581 89.707 36.2383 89.707 35.1055C89.707 33.9206 89.6419 33.0221 89.5117 32.4102C89.3815 31.7852 89.1146 31.3555 88.7109 31.1211C88.3073 30.8737 87.6888 30.724 86.8555 30.6719L84.7461 30.5547V47H80.2148ZM84.7656 27.1367H87.1289C87.832 27.1367 88.3659 26.9935 88.7305 26.707C89.1081 26.4076 89.362 25.8411 89.4922 25.0078C89.6354 24.1745 89.707 22.944 89.707 21.3164V21.1016C89.707 19.7344 89.6419 18.6992 89.5117 17.9961C89.3815 17.293 89.1211 16.8177 88.7305 16.5703C88.3529 16.3099 87.7734 16.1797 86.9922 16.1797H84.7656V27.1367ZM99.0039 47V12.625H109.805V16.4727H103.535V27.4883H109.473V31.2969H103.535V43.1523H109.941V47H99.0039Z" fill="#D9D9D9"/>
<path d="M119.242 47V12.625H128.324V14.8906H122.152V28.3281H127.953V30.6914H122.152V44.6953H128.266V47H119.242ZM136.508 47V31.9219L130.297 12.625H133.227L137.934 27.8203H137.992L142.016 12.625H145.023L139.418 31.9023V47H136.508ZM148.578 47V12.625H157.66V14.8906H151.488V28.3281H157.289V30.6914H151.488V44.6953H157.602V47H148.578ZM167.348 47.3906C165.98 47.3906 164.893 47.1172 164.086 46.5703C163.292 46.0104 162.699 45.2487 162.309 44.2852C161.918 43.3086 161.664 42.1823 161.547 40.9062C161.43 39.6172 161.371 38.2435 161.371 36.7852V33.2305H164.223V36.7266C164.223 39.6693 164.431 41.7852 164.848 43.0742C165.277 44.3633 166.169 45.0078 167.523 45.0078C168.474 45.0078 169.151 44.7734 169.555 44.3047C169.971 43.8359 170.232 43.1003 170.336 42.0977C170.44 41.0951 170.492 39.7865 170.492 38.1719C170.492 36.401 170.271 34.9753 169.828 33.8945C169.398 32.8008 168.624 31.7396 167.504 30.7109L165.473 28.8359C164.848 28.263 164.197 27.599 163.52 26.8438C162.842 26.0885 162.27 25.2096 161.801 24.207C161.332 23.1914 161.098 22.026 161.098 20.7109C161.098 19.0573 161.241 17.5924 161.527 16.3164C161.827 15.0273 162.406 14.0182 163.266 13.2891C164.138 12.5469 165.44 12.1758 167.172 12.1758C168.578 12.1758 169.672 12.4492 170.453 12.9961C171.234 13.5299 171.794 14.2786 172.133 15.2422C172.484 16.2057 172.699 17.3255 172.777 18.6016C172.855 19.8776 172.895 21.2578 172.895 22.7422V24.6758H170.297V22.5273C170.297 20.418 170.199 18.7969 170.004 17.6641C169.822 16.5182 169.509 15.724 169.066 15.2812C168.624 14.8385 168.005 14.6172 167.211 14.6172C166.456 14.6172 165.837 14.7669 165.355 15.0664C164.887 15.3659 164.542 15.9193 164.32 16.7266C164.112 17.5208 164.008 18.6862 164.008 20.2227C164.008 21.3164 164.132 22.2018 164.379 22.8789C164.626 23.543 165.004 24.1484 165.512 24.6953C166.02 25.2422 166.651 25.8932 167.406 26.6484L169.301 28.5234C170.603 29.7995 171.618 31.2122 172.348 32.7617C173.09 34.3112 173.461 36.2188 173.461 38.4844C173.461 40.2292 173.311 41.7721 173.012 43.1133C172.712 44.4544 172.126 45.5026 171.254 46.2578C170.382 47.013 169.079 47.3906 167.348 47.3906Z" fill="#737373"/>
</g>
<defs>
<clipPath id="clip0_242_1154">
<rect width="180" height="60" fill="white"/>
</clipPath>
</defs>
</svg>
